<svg xmlns="http://www.w3.org/2000/svg" viewBox="0 0 237.4 45.3"><defs><style>.cls-1{fill:#ed2b00;}</style></defs><g id="Capa_2" data-name="Capa 2"><g id="Capa_1-2" data-name="Capa 1"><path class="cls-1" d="M22.65,0A11.75,11.75,0,0,1,3.92,5.94L0,2.75S10.28,45.3,22.65,45.3,45.3,2.75,45.3,2.75L41,6.19A11.52,11.52,0,0,1,22.65,0Z"/><path class="cls-1" d="M76.32,16.74A7.61,7.61,0,0,1,81.72,19l4-4a13.26,13.26,0,1,0,0,18.76l-4-4a7.63,7.63,0,1,1-5.4-13Z"/><path class="cls-1" d="M169.65,32A7.63,7.63,0,1,1,175,19l4-4a13.26,13.26,0,1,0,0,18.76l-4-4A7.56,7.56,0,0,1,169.65,32Z"/><polygon class="cls-1" points="224.41 31.63 224.41 11.39 218.77 11.39 218.77 37.27 237.4 37.27 237.4 31.63 224.41 31.63"/><polygon class="cls-1" points="95.06 37.3 115.21 37.3 115.21 31.66 100.7 31.66 100.7 27.15 112.96 27.15 112.96 21.51 100.7 21.51 100.7 16.99 115.21 16.99 115.21 11.36 95.06 11.36 95.06 37.3"/><polygon class="cls-1" points="143.15 28.73 131.22 11.36 125.24 11.36 125.24 37.35 130.87 37.35 130.87 20.82 142.24 37.36 148.79 37.36 148.79 11.39 143.15 11.39 143.15 28.73"/><path class="cls-1" d="M191.84,11.36l-6.7,26H191l1.48-5.73H203l1.48,5.73h5.82l-6.7-26Zm2,14.62,2.32-9h3l2.31,9Z"/></g></g></svg>