<svg xmlns="http://www.w3.org/2000/svg" viewBox="0 0 232.2 40.74"><defs><style>.cls-1{fill:#fedd00;}</style></defs><g id="Capa_2" data-name="Capa 2"><g id="Capa_1-2" data-name="Capa 1"><path class="cls-1" d="M65.34,15.89a6.76,6.76,0,0,0-3.16-.79s-8.64,0-8.71,0a7.57,7.57,0,0,0-1.77.26A10.35,10.35,0,0,0,48.35,17a14.63,14.63,0,0,0-4.93,6.62,33.64,33.64,0,0,0-1.27,5.17,11.16,11.16,0,0,0,.53,7.06,6.31,6.31,0,0,0,4.91,3.75c1.42.17,9.57,0,9.72,0a9.33,9.33,0,0,0,2.74-.59A11.44,11.44,0,0,0,63.3,37a15.21,15.21,0,0,0,4.42-7.14c.4-1.39.66-2.83.93-4.26a10.55,10.55,0,0,0-1-7.42A7,7,0,0,0,65.34,15.89ZM60,25.14c-.2,1.26-.51,2.51-.78,3.75a15.46,15.46,0,0,1-3.4,6.83,13.68,13.68,0,0,1-2.7,2.38,6.34,6.34,0,0,1-1.39-1.73,10.63,10.63,0,0,1-1-6.8c.21-1.25.51-2.51.78-3.74A15.28,15.28,0,0,1,55,18.88a12.57,12.57,0,0,1,2.59-2.24A6,6,0,0,1,59,18.37,10.37,10.37,0,0,1,60,25.14Z"/><path class="cls-1" d="M164.83,15.93a6.11,6.11,0,0,0-2.15-.74,87.55,87.55,0,0,0-12.75,0,12.21,12.21,0,0,0-2.51,1.16,4.7,4.7,0,0,0-1.83-1.2,87.55,87.55,0,0,0-12.75,0,9.93,9.93,0,0,0-4.58,2.17,10.26,10.26,0,0,0-3.08,4.18,19.71,19.71,0,0,0-.8,3.2c-.23,1-3.16,14.82-3.16,14.82H130s2.66-12.54,3-14.12a21.62,21.62,0,0,1,1-4.05A10.51,10.51,0,0,1,139.1,16a6,6,0,0,1,2.84,4.26,8.09,8.09,0,0,1-.16,2.82c-.13.55-3.25,15.33-3.5,16.49,0-.06,8.74.08,8.74,0,.66-3.14,3.19-15,3.29-15.45s.13-.66.19-1a10,10,0,0,1,.53-1.71,10.53,10.53,0,0,1,5.14-5.4A6,6,0,0,1,159,20.29a11.55,11.55,0,0,1-.42,4.13c-.83,3.9-3,14-3.23,15.18,0-.06,8.73.08,8.73,0,.69-3.25,2.88-13.56,3.29-15.45a8.83,8.83,0,0,0,.06-5A5.71,5.71,0,0,0,164.83,15.93Z"/><path class="cls-1" d="M82.46,27.41c.17-.79,6.09-24,6.57-25.82H80.27C79,6.34,75,21.87,74.3,24.87c-.19.8-.38,1.58-.55,2.38a35.63,35.63,0,0,0-.82,4.36,9.47,9.47,0,0,0,1.73,6.75,6,6,0,0,0,2.48,1.87,6.16,6.16,0,0,0,1.52.38,53.61,53.61,0,0,0,5.48.11l.32-1.35c-2.11-1.69-3-4.74-2.82-7.51A32.92,32.92,0,0,1,82.46,27.41Z"/><path class="cls-1" d="M110.34,16.27c-.63,3-2.5,11.76-2.8,13.15a18.21,18.21,0,0,1-1.2,4.38,10.67,10.67,0,0,1-4.93,4.91,5.94,5.94,0,0,1-2.76-3.87,10,10,0,0,1,.29-4.24c.78-3.65,2.8-13.18,3-14.31,0,.06-8.73-.07-8.73,0-.67,3.12-2.74,12.85-3.1,14.6a8.3,8.3,0,0,0,.17,5.17A5.93,5.93,0,0,0,93,39a6.31,6.31,0,0,0,2.06.63,92.27,92.27,0,0,0,12.44,0,9.91,9.91,0,0,0,4.43-2,10.67,10.67,0,0,0,3.12-3.78,14,14,0,0,0,1-3.31l3-14.22C119.05,16.33,110.34,16.2,110.34,16.27Z"/><path class="cls-1" d="M35.11,1.36A10.22,10.22,0,0,0,30.16.06C27.63,0,18.61-.09,16.67.26a14.3,14.3,0,0,0-5.14,2.07,21.43,21.43,0,0,0-7.85,9.38,37.43,37.43,0,0,0-2.13,7.65C1.07,21.58.48,23.83.18,26.09c-.5,3.66,0,7.65,2.2,10.69a9.27,9.27,0,0,0,3.69,3,9.72,9.72,0,0,0,2.29.68,10.42,10.42,0,0,0,1.37.14c1.9.09,10.16.11,12.34,0a12.8,12.8,0,0,0,2.69-.44,15.53,15.53,0,0,0,5-2.49,22.05,22.05,0,0,0,7.42-10,22.49,22.49,0,0,0,.92-3.1s-10.93,0-10.93,0c-1.31,6-5.36,12-11,14.76a10,10,0,0,1-4.11-4.85,17.06,17.06,0,0,1-.59-10.29L13,16.94a24,24,0,0,1,4.18-9.65,19.59,19.59,0,0,1,7-5.91,9.21,9.21,0,0,1,2.47,2.11,13,13,0,0,1,2.7,7.31A18.82,18.82,0,0,1,29.13,15H40.05a15.4,15.4,0,0,0-1.59-10.2A10,10,0,0,0,35.11,1.36Z"/><path class="cls-1" d="M193.92,15.48a9.46,9.46,0,0,0-1.07-.12c-1.48-.07-5.82,0-6.51,0l-.13.48a6.38,6.38,0,0,1,3.2,2.83,10.63,10.63,0,0,1,1,6.8c-.21,1.25-.52,2.51-.78,3.74a15.28,15.28,0,0,1-3.52,6.95,12.92,12.92,0,0,1-2.59,2.24A8.27,8.27,0,0,1,181,32.9a23.83,23.83,0,0,1,1-7.23s5.63-21.61,6.14-24.06h-8.73C178.49,5.94,173.86,22.88,173,27c-.55,2.6-1.14,5.21-.38,7.85a6.59,6.59,0,0,0,5.86,5.07h8.94a7.9,7.9,0,0,0,2.38-.38,10.92,10.92,0,0,0,4-2.41,15.51,15.51,0,0,0,4.59-8.28c.53-2.47,1.18-5,.7-7.5C198.62,18.58,196.81,16,193.92,15.48Z"/><path class="cls-1" d="M229.67,35.47a11.64,11.64,0,0,1-.39-6.64c.21-.87,2.17-10.29,2.92-13.73l-8.74,0c-.82,3.84-1.65,7.74-2.47,11.6-.15.67-.3,1.35-.44,2a17.21,17.21,0,0,1-1,3.06,15.3,15.3,0,0,1-3.6,5.12,10.61,10.61,0,0,1-1.59,1.24A6.53,6.53,0,0,1,213,36.37a10.63,10.63,0,0,1-1-6.8c.21-1.25.51-2.51.78-3.74a15.28,15.28,0,0,1,3.52-6.95,11.91,11.91,0,0,1,4.73-3.33l.14-.51-1.94,0a49.71,49.71,0,0,0-5,.09,9.07,9.07,0,0,0-1.6.33A10.32,10.32,0,0,0,209.69,17a14.44,14.44,0,0,0-4.57,5.75,24.75,24.75,0,0,0-1.46,5.23,14.65,14.65,0,0,0-.33,5.67,7.47,7.47,0,0,0,3.14,5.06,6.29,6.29,0,0,0,2.74.89c.21,0,8.35.17,10,0A8.93,8.93,0,0,0,223,38.21l.61.46a5.6,5.6,0,0,0,1.88.76,10.07,10.07,0,0,0,1.12.15c1.53.1,4.86.06,5,.06l.32-1.31A6.34,6.34,0,0,1,229.67,35.47Z"/></g></g></svg>