<svg xmlns="http://www.w3.org/2000/svg" viewBox="0 0 185 49.45"><defs><style>.cls-1{fill:#263e8c;}</style></defs><g id="Capa_2" data-name="Capa 2"><g id="Capa_1-2" data-name="Capa 1"><path class="cls-1" d="M109.93,14.91a13.52,13.52,0,0,0-9.45,13.23,13.67,13.67,0,0,0,9.45,13.23A22.49,22.49,0,0,0,125.15,41V38.11s-5.67,1.47-10.39-1.36c-2.52-1.58-4.1-5-4.1-8.61s1.58-7,4.1-8.61c4.72-2.94,10.39-1.37,10.39-1.37V15.33A22.36,22.36,0,0,0,109.93,14.91Z"/><polygon class="cls-1" points="132.5 17.74 132.5 42 142.06 42 142.06 13.44 132.5 17.74"/><path class="cls-1" d="M85.68,14.49a18.94,18.94,0,0,0-6.09-1.05l-4.73,2.2V12.81l-9.55,4.62v32h9.55V41.37a20.78,20.78,0,0,0,10.4-.32C98.17,37.38,98.59,18.69,85.68,14.49Zm-4.2,21.42a8.83,8.83,0,0,1-6.62,2.2V17.32a12.34,12.34,0,0,1,6,1.79C85.47,22.05,86.73,31.39,81.48,35.91Z"/><path class="cls-1" d="M139.54,2.41a8.59,8.59,0,0,0-7,4.83c-1.26,2.63-.1,4.83,2.52,4.83a8.59,8.59,0,0,0,7-4.83C143.32,4.62,142.16,2.41,139.54,2.41Z"/><path class="cls-1" d="M12.7,36.12l-.21-.21a1.39,1.39,0,0,0-.42-.32A8.74,8.74,0,0,1,9.55,29.4V.1L0,4.93V33H0c.1,3.46,4.51,7.45,9.87,8.61a3.68,3.68,0,0,0,.63.1,20.37,20.37,0,0,0,12.28-1.26V37.59C18.69,38.85,15.12,38.11,12.7,36.12Z"/><path class="cls-1" d="M159.8,29.29V16.8h13l.11-3.57H159.8V0l-9.55,4.72v28h0c.1,3.46,4.51,7.45,9.87,8.61a19.75,19.75,0,0,0,12.81-1.16V37.38C165.79,39.79,159.8,35.7,159.8,29.29Z"/><path class="cls-1" d="M57.33,29.61c.21-7.14.42-11.13-6.51-15-12.5-6.93-27.51,2.94-24.68,16S42.73,42.1,42.73,42.1l4.52-4C42,37.69,36.33,35.8,35.91,27.72c-.53-9.35,7.56-10.61,7.56-10.61,8.4.63-.53,14.7,6.4,25.31l8.93-5S57.12,36,57.33,29.61Z"/><path class="cls-1" d="M185,39.58a5,5,0,0,1-.21,1.26,3.7,3.7,0,0,1-.63.95,7.65,7.65,0,0,1-.94.63,4,4,0,0,1-1.16.21,3.87,3.87,0,0,1-1.15-.21,2.62,2.62,0,0,1-.95-.63l-.63-.95a4.65,4.65,0,0,1-.21-1.15,5.53,5.53,0,0,1,.21-1.26,3.7,3.7,0,0,1,.63-1,7.11,7.11,0,0,1,.95-.63,3.87,3.87,0,0,1,1.15-.21,4.73,4.73,0,0,1,1.16.21,2.59,2.59,0,0,1,.94.63,2.38,2.38,0,0,1,.63,1A3.57,3.57,0,0,1,185,39.58Zm-.63,0a3.63,3.63,0,0,0-.21-1,3.69,3.69,0,0,0-.52-.84,1.81,1.81,0,0,0-.74-.52A2.9,2.9,0,0,0,182,37a3,3,0,0,0-1,.21,1.84,1.84,0,0,0-.73.52,2.41,2.41,0,0,0-.53.84,2.48,2.48,0,0,0,0,2,3.47,3.47,0,0,0,.42.84,1.81,1.81,0,0,0,.74.52,2.9,2.9,0,0,0,.94.21,3,3,0,0,0,1-.21,1.84,1.84,0,0,0,.73-.52,3.4,3.4,0,0,0,.53-.74A2,2,0,0,0,184.37,39.58Zm-2.94,1.68h-.52V37.9h1.26a2.14,2.14,0,0,1,.94.21.83.83,0,0,1,.32.74.93.93,0,0,1-.21.63,1.18,1.18,0,0,1-.63.21l.94,1.47h-.63l-.84-1.47h-.52v1.57Zm.63-1.89h.32c.1,0,.21,0,.21-.1s.1-.11.21-.11.1-.21.1-.31,0-.21-.1-.21-.11-.11-.21-.11-.11,0-.21-.1h-.84v.94Z"/></g></g></svg>