<svg xmlns="http://www.w3.org/2000/svg" viewBox="0 0 194.42 53.46"><defs><style>.cls-1{fill:#939;}</style></defs><g id="Capa_2" data-name="Capa 2"><g id="Capa_1-2" data-name="Capa 1"><polygon class="cls-1" points="166.41 4.79 163.34 1.35 156.33 8.36 159.53 11.68 166.41 4.79"/><path class="cls-1" d="M84.19,15.36c-1.35-1-5-2.7-10.7,1.48a14.69,14.69,0,0,0-4.42,5.77v-5.4H64.52V53.34h4.55v-5.9c.12-2.21.25-4.79.49-7.5a36.63,36.63,0,0,1,.49-3.81C80.62,34.66,85.66,28.88,86.89,24,87.51,20.4,86.52,17.08,84.19,15.36Zm-1.85,7.38C81.24,27.41,76,30,70.79,31.09,72,25.81,73.74,22.25,76,20.65a8,8,0,0,1,4.3-1.85,1.84,1.84,0,0,1,1.23.37C82.47,19.79,82.71,21.26,82.34,22.74Z"/><path class="cls-1" d="M135.07,9.46c-.37.13-8.48,2.09-13.77,8.85a19.22,19.22,0,0,0-1.35,2V15.12H115.4V36.5H120c0-.12.12-9.22,4.92-15.24A22.34,22.34,0,0,1,136.17,14Z"/><path class="cls-1" d="M191.11,15.36a6.88,6.88,0,0,0-6.88.13,15.17,15.17,0,0,0-5.53,5.65c-3.07,5.65-2.58,11.8,1.35,14.13a5.5,5.5,0,0,0,3.07.86c3.32,0,7-2.46,9.34-6.63C195.54,24,194.92,17.7,191.11,15.36Zm-2.58,11.92c-1.84,3.45-4.92,5-6.27,4.18s-1.6-4.3.25-7.74a10,10,0,0,1,3.69-3.81,3.31,3.31,0,0,1,1.72-.49,1.85,1.85,0,0,1,.86.24C190.25,20.28,190.37,23.84,188.53,27.28Z"/><path class="cls-1" d="M157.07,29.25a4.06,4.06,0,0,1-.37,1.6,2.34,2.34,0,0,1-2.46,1.35A2.1,2.1,0,0,1,152,30.73a7.05,7.05,0,0,1-.49-2V14.5c-1.23,0-3.08.13-3.08.13-10.93,1.1-16.1,6.88-17.2,12-.74,3.56.24,6.76,2.7,8.36,1.23.86,4.8,2.33,10-2a26.49,26.49,0,0,0,3.19-3.32c.49,3.07,2.58,7,7.13,7,5.41,0,7.38-4.55,7.38-7.75V14.5h-4.55Zm-16.1.37c-2.34,2-3.94,2.09-4.8,1.6a3.17,3.17,0,0,1-.73-3.32c.73-3.2,3.93-6.76,10.94-8.11A15.72,15.72,0,0,1,141,29.62Z"/><path class="cls-1" d="M89.47,26.79c-.74,3.57.25,6.76,2.71,8.36,1.22.86,4.79,2.33,9.95-2a15.52,15.52,0,0,0,3.07-3.32v6.52h4.55l.12-21.88c-1.23,0-3.07.13-3.07.13C95.74,15.85,90.7,21.75,89.47,26.79Zm9.83,2.83c-2.33,2-3.93,2.09-4.79,1.6s-1.11-1.85-.74-3.32c.25-1.11,2-6.39,10.94-8.11A16.53,16.53,0,0,1,99.3,29.62Z"/><path class="cls-1" d="M55.18,29.13a4.06,4.06,0,0,1-.37,1.6,2.32,2.32,0,0,1-2.45,1.35,2.12,2.12,0,0,1-2.22-1.48,6.94,6.94,0,0,1-.49-2V14.38c-1.23,0-3.07.12-3.07.12-10.94,1.11-16.1,6.88-17.21,12.05-.73,3.56.25,6.76,2.71,8.35,1.23.86,4.79,2.34,10-2a26.61,26.61,0,0,0,3.2-3.32c.49,3.07,2.58,7,7.13,7,5.4,0,7.37-4.54,7.37-7.74V2.21H55.18Zm-16,.37c-2.34,2-3.94,2.09-4.8,1.59s-1.1-1.84-.74-3.31c.74-3.2,3.94-6.76,10.94-8.12A16.24,16.24,0,0,1,39.21,29.5Z"/><path class="cls-1" d="M26.42,0A154,154,0,0,1,23,16.47c-3.93,14.62-7.25,15-7.62,15s-3.56-.37-7.49-15A152.64,152.64,0,0,1,4.42,0L0,.74A141,141,0,0,0,3.56,17.82c3.32,12.66,7.13,18.44,11.8,18.44s8.48-5.9,11.92-18.44C29.5,9.34,30.73,1.11,30.85.74Z"/><path class="cls-1" d="M166.29,25a32.84,32.84,0,0,0,1.1,8.85,30.53,30.53,0,0,1,1,7.62c-.12,3.07-1.1,5.28-2.82,6.51a5.57,5.57,0,0,1-2.71.86h0l-.12,4.67h0c.37,0,9.46-.12,10.08-11.8a32.88,32.88,0,0,0-1.11-8.85,30.94,30.94,0,0,1-1-7.62c.12-3.07,1.11-5.28,2.83-6.51a5.54,5.54,0,0,1,2.7-.86h0l.12-4.67C176.24,13.15,166.9,13.15,166.29,25Z"/></g></g></svg>